<mxfile host="app.diagrams.net" modified="2022-08-27T08:10:29.647Z" agent="5.0 (Windows NT 10.0; Win64; x64) AppleWebKit/537.36 (KHTML, like Gecko) Chrome/102.0.5005.63 Safari/537.36 Edg/102.0.1245.33" etag="MooZ364Fm1n4jITuSL7D" version="20.2.7" type="github" pages="2">
  <diagram id="HEuXEYdDUPjuQIYphe7p" name="k3s网络架构">
    <mxGraphModel dx="1865" dy="556" grid="0" gridSize="10" guides="1" tooltips="1" connect="1" arrows="1" fold="1" page="1" pageScale="1" pageWidth="827" pageHeight="1169" math="0" shadow="0">
      <root>
        <mxCell id="0" />
        <mxCell id="1" parent="0" />
        <mxCell id="O3nK4AZJQC9Sh1DX9Ab0-29" value="" style="rounded=0;whiteSpace=wrap;html=1;dashed=1;" parent="1" vertex="1">
          <mxGeometry x="707" y="50" width="503" height="380" as="geometry" />
        </mxCell>
        <mxCell id="O3nK4AZJQC9Sh1DX9Ab0-27" value="" style="rounded=0;whiteSpace=wrap;html=1;dashed=1;" parent="1" vertex="1">
          <mxGeometry x="-10" y="50" width="690" height="380" as="geometry" />
        </mxCell>
        <mxCell id="O3nK4AZJQC9Sh1DX9Ab0-9" style="edgeStyle=orthogonalEdgeStyle;rounded=0;orthogonalLoop=1;jettySize=auto;html=1;endArrow=classic;endFill=1;" parent="1" source="O3nK4AZJQC9Sh1DX9Ab0-1" target="O3nK4AZJQC9Sh1DX9Ab0-2" edge="1">
          <mxGeometry relative="1" as="geometry" />
        </mxCell>
        <mxCell id="O3nK4AZJQC9Sh1DX9Ab0-1" value="Supervisor" style="rounded=1;whiteSpace=wrap;html=1;fillColor=#0050ef;fontColor=#ffffff;strokeColor=#001DBC;" parent="1" vertex="1">
          <mxGeometry x="170" y="100" width="120" height="60" as="geometry" />
        </mxCell>
        <mxCell id="O3nK4AZJQC9Sh1DX9Ab0-10" style="edgeStyle=orthogonalEdgeStyle;rounded=0;orthogonalLoop=1;jettySize=auto;html=1;entryX=1;entryY=0.5;entryDx=0;entryDy=0;endArrow=classic;endFill=1;" parent="1" source="O3nK4AZJQC9Sh1DX9Ab0-2" target="O3nK4AZJQC9Sh1DX9Ab0-3" edge="1">
          <mxGeometry relative="1" as="geometry" />
        </mxCell>
        <mxCell id="O3nK4AZJQC9Sh1DX9Ab0-11" style="rounded=0;orthogonalLoop=1;jettySize=auto;html=1;entryX=0.5;entryY=0;entryDx=0;entryDy=0;endArrow=none;endFill=0;startArrow=classic;startFill=1;" parent="1" source="O3nK4AZJQC9Sh1DX9Ab0-2" target="O3nK4AZJQC9Sh1DX9Ab0-6" edge="1">
          <mxGeometry relative="1" as="geometry" />
        </mxCell>
        <mxCell id="O3nK4AZJQC9Sh1DX9Ab0-12" style="edgeStyle=none;rounded=0;orthogonalLoop=1;jettySize=auto;html=1;entryX=0.5;entryY=0;entryDx=0;entryDy=0;endArrow=none;endFill=0;startArrow=classic;startFill=1;" parent="1" source="O3nK4AZJQC9Sh1DX9Ab0-2" target="O3nK4AZJQC9Sh1DX9Ab0-7" edge="1">
          <mxGeometry relative="1" as="geometry" />
        </mxCell>
        <mxCell id="O3nK4AZJQC9Sh1DX9Ab0-13" style="edgeStyle=none;rounded=0;orthogonalLoop=1;jettySize=auto;html=1;exitX=0.75;exitY=1;exitDx=0;exitDy=0;entryX=0;entryY=0;entryDx=0;entryDy=0;endArrow=none;endFill=0;startArrow=classic;startFill=1;" parent="1" source="O3nK4AZJQC9Sh1DX9Ab0-2" target="O3nK4AZJQC9Sh1DX9Ab0-8" edge="1">
          <mxGeometry relative="1" as="geometry" />
        </mxCell>
        <mxCell id="O3nK4AZJQC9Sh1DX9Ab0-2" value="API Server" style="rounded=1;whiteSpace=wrap;html=1;" parent="1" vertex="1">
          <mxGeometry x="170" y="220" width="120" height="60" as="geometry" />
        </mxCell>
        <mxCell id="O3nK4AZJQC9Sh1DX9Ab0-3" value="Kine" style="rounded=1;whiteSpace=wrap;html=1;" parent="1" vertex="1">
          <mxGeometry x="10" y="220" width="120" height="60" as="geometry" />
        </mxCell>
        <mxCell id="O3nK4AZJQC9Sh1DX9Ab0-16" style="edgeStyle=none;rounded=0;orthogonalLoop=1;jettySize=auto;html=1;entryX=1;entryY=0.5;entryDx=0;entryDy=0;endArrow=classic;endFill=1;dashed=1;" parent="1" source="O3nK4AZJQC9Sh1DX9Ab0-4" target="O3nK4AZJQC9Sh1DX9Ab0-2" edge="1">
          <mxGeometry relative="1" as="geometry" />
        </mxCell>
        <mxCell id="O3nK4AZJQC9Sh1DX9Ab0-4" value="Kube Proxy" style="rounded=1;whiteSpace=wrap;html=1;dashed=1;" parent="1" vertex="1">
          <mxGeometry x="340" y="220" width="120" height="60" as="geometry" />
        </mxCell>
        <mxCell id="O3nK4AZJQC9Sh1DX9Ab0-15" style="edgeStyle=none;rounded=0;orthogonalLoop=1;jettySize=auto;html=1;entryX=1;entryY=0.5;entryDx=0;entryDy=0;endArrow=classic;endFill=1;dashed=1;" parent="1" source="O3nK4AZJQC9Sh1DX9Ab0-5" target="O3nK4AZJQC9Sh1DX9Ab0-4" edge="1">
          <mxGeometry relative="1" as="geometry" />
        </mxCell>
        <mxCell id="O3nK4AZJQC9Sh1DX9Ab0-5" value="Flannel" style="rounded=1;whiteSpace=wrap;html=1;dashed=1;" parent="1" vertex="1">
          <mxGeometry x="510" y="220" width="120" height="60" as="geometry" />
        </mxCell>
        <mxCell id="O3nK4AZJQC9Sh1DX9Ab0-6" value="Scheduler" style="rounded=1;whiteSpace=wrap;html=1;" parent="1" vertex="1">
          <mxGeometry x="10" y="340" width="120" height="60" as="geometry" />
        </mxCell>
        <mxCell id="O3nK4AZJQC9Sh1DX9Ab0-7" value="Controller Manager" style="rounded=1;whiteSpace=wrap;html=1;" parent="1" vertex="1">
          <mxGeometry x="170" y="340" width="120" height="60" as="geometry" />
        </mxCell>
        <mxCell id="O3nK4AZJQC9Sh1DX9Ab0-14" style="edgeStyle=none;rounded=0;orthogonalLoop=1;jettySize=auto;html=1;entryX=0.5;entryY=1;entryDx=0;entryDy=0;endArrow=classic;endFill=1;startArrow=none;startFill=0;dashed=1;" parent="1" source="O3nK4AZJQC9Sh1DX9Ab0-8" target="O3nK4AZJQC9Sh1DX9Ab0-5" edge="1">
          <mxGeometry relative="1" as="geometry" />
        </mxCell>
        <mxCell id="O3nK4AZJQC9Sh1DX9Ab0-8" value="Kubelet" style="rounded=1;whiteSpace=wrap;html=1;dashed=1;" parent="1" vertex="1">
          <mxGeometry x="340" y="340" width="120" height="60" as="geometry" />
        </mxCell>
        <mxCell id="O3nK4AZJQC9Sh1DX9Ab0-25" style="edgeStyle=orthogonalEdgeStyle;rounded=0;orthogonalLoop=1;jettySize=auto;html=1;entryX=1;entryY=0.5;entryDx=0;entryDy=0;startArrow=none;startFill=0;endArrow=classic;endFill=1;" parent="1" source="O3nK4AZJQC9Sh1DX9Ab0-17" target="O3nK4AZJQC9Sh1DX9Ab0-1" edge="1">
          <mxGeometry relative="1" as="geometry">
            <Array as="points">
              <mxPoint x="780" y="130" />
            </Array>
          </mxGeometry>
        </mxCell>
        <mxCell id="O3nK4AZJQC9Sh1DX9Ab0-17" value="Tunnel Proxy" style="rounded=1;whiteSpace=wrap;html=1;fillColor=#0050ef;fontColor=#ffffff;strokeColor=#001DBC;" parent="1" vertex="1">
          <mxGeometry x="720" y="220" width="120" height="60" as="geometry" />
        </mxCell>
        <mxCell id="O3nK4AZJQC9Sh1DX9Ab0-24" style="edgeStyle=none;rounded=0;orthogonalLoop=1;jettySize=auto;html=1;entryX=1;entryY=0.5;entryDx=0;entryDy=0;startArrow=none;startFill=0;endArrow=classic;endFill=1;" parent="1" source="O3nK4AZJQC9Sh1DX9Ab0-18" target="O3nK4AZJQC9Sh1DX9Ab0-17" edge="1">
          <mxGeometry relative="1" as="geometry" />
        </mxCell>
        <mxCell id="O3nK4AZJQC9Sh1DX9Ab0-18" value="Kube Proxy" style="rounded=1;whiteSpace=wrap;html=1;" parent="1" vertex="1">
          <mxGeometry x="890" y="220" width="120" height="60" as="geometry" />
        </mxCell>
        <mxCell id="O3nK4AZJQC9Sh1DX9Ab0-23" style="edgeStyle=none;rounded=0;orthogonalLoop=1;jettySize=auto;html=1;entryX=1;entryY=0.5;entryDx=0;entryDy=0;startArrow=none;startFill=0;endArrow=classic;endFill=1;" parent="1" source="O3nK4AZJQC9Sh1DX9Ab0-19" target="O3nK4AZJQC9Sh1DX9Ab0-18" edge="1">
          <mxGeometry relative="1" as="geometry" />
        </mxCell>
        <mxCell id="O3nK4AZJQC9Sh1DX9Ab0-19" value="Flannel" style="rounded=1;whiteSpace=wrap;html=1;" parent="1" vertex="1">
          <mxGeometry x="1060" y="220" width="120" height="60" as="geometry" />
        </mxCell>
        <mxCell id="O3nK4AZJQC9Sh1DX9Ab0-21" style="edgeStyle=none;rounded=0;orthogonalLoop=1;jettySize=auto;html=1;entryX=0.5;entryY=1;entryDx=0;entryDy=0;startArrow=none;startFill=0;endArrow=classic;endFill=1;" parent="1" source="O3nK4AZJQC9Sh1DX9Ab0-20" target="O3nK4AZJQC9Sh1DX9Ab0-17" edge="1">
          <mxGeometry relative="1" as="geometry" />
        </mxCell>
        <mxCell id="O3nK4AZJQC9Sh1DX9Ab0-22" style="edgeStyle=none;rounded=0;orthogonalLoop=1;jettySize=auto;html=1;entryX=0.5;entryY=1;entryDx=0;entryDy=0;startArrow=none;startFill=0;endArrow=classic;endFill=1;" parent="1" source="O3nK4AZJQC9Sh1DX9Ab0-20" target="O3nK4AZJQC9Sh1DX9Ab0-19" edge="1">
          <mxGeometry relative="1" as="geometry" />
        </mxCell>
        <mxCell id="O3nK4AZJQC9Sh1DX9Ab0-20" value="Kubelet" style="rounded=1;whiteSpace=wrap;html=1;" parent="1" vertex="1">
          <mxGeometry x="890" y="340" width="120" height="60" as="geometry" />
        </mxCell>
        <mxCell id="O3nK4AZJQC9Sh1DX9Ab0-28" value="K3s Server" style="text;html=1;strokeColor=none;fillColor=none;align=center;verticalAlign=middle;whiteSpace=wrap;rounded=0;dashed=1;" parent="1" vertex="1">
          <mxGeometry x="300" y="50" width="70" height="30" as="geometry" />
        </mxCell>
        <mxCell id="O3nK4AZJQC9Sh1DX9Ab0-30" value="K3s Agent" style="text;html=1;strokeColor=none;fillColor=none;align=center;verticalAlign=middle;whiteSpace=wrap;rounded=0;dashed=1;" parent="1" vertex="1">
          <mxGeometry x="929" y="50" width="60" height="30" as="geometry" />
        </mxCell>
      </root>
    </mxGraphModel>
  </diagram>
  <diagram id="8SatyN6uoqoJlnDd3UTE" name="第 2 页">
    <mxGraphModel dx="2048" dy="1823" grid="0" gridSize="10" guides="1" tooltips="1" connect="1" arrows="1" fold="1" page="1" pageScale="1" pageWidth="827" pageHeight="1169" math="0" shadow="0">
      <root>
        <mxCell id="0" />
        <mxCell id="1" parent="0" />
        <mxCell id="Ggve3WEJ0lbRmhn-Nmp4-52" value="" style="rounded=0;whiteSpace=wrap;html=1;fontSize=14;dashed=1;" parent="1" vertex="1">
          <mxGeometry x="-65" y="-117" width="1025" height="742" as="geometry" />
        </mxCell>
        <mxCell id="Ggve3WEJ0lbRmhn-Nmp4-18" value="" style="rounded=0;whiteSpace=wrap;html=1;fillColor=#d5e8d4;strokeColor=#82b366;" parent="1" vertex="1">
          <mxGeometry x="503" y="204" width="433" height="277" as="geometry" />
        </mxCell>
        <mxCell id="Ggve3WEJ0lbRmhn-Nmp4-29" value="" style="rounded=0;whiteSpace=wrap;html=1;fillColor=#f5f5f5;strokeColor=#666666;fontColor=#333333;" parent="1" vertex="1">
          <mxGeometry x="36" y="-78" width="900" height="262" as="geometry" />
        </mxCell>
        <mxCell id="Ggve3WEJ0lbRmhn-Nmp4-30" value="" style="rounded=0;whiteSpace=wrap;html=1;" parent="1" vertex="1">
          <mxGeometry x="286" y="-7" width="177" height="145" as="geometry" />
        </mxCell>
        <mxCell id="Ggve3WEJ0lbRmhn-Nmp4-16" value="" style="rounded=0;whiteSpace=wrap;html=1;fillColor=#d5e8d4;strokeColor=#82b366;" parent="1" vertex="1">
          <mxGeometry x="36" y="202" width="433" height="277" as="geometry" />
        </mxCell>
        <mxCell id="Ggve3WEJ0lbRmhn-Nmp4-9" value="" style="rounded=0;whiteSpace=wrap;html=1;" parent="1" vertex="1">
          <mxGeometry x="263" y="255" width="165" height="202" as="geometry" />
        </mxCell>
        <mxCell id="Ggve3WEJ0lbRmhn-Nmp4-8" value="" style="rounded=0;whiteSpace=wrap;html=1;" parent="1" vertex="1">
          <mxGeometry x="65" y="252" width="168" height="206" as="geometry" />
        </mxCell>
        <mxCell id="Ggve3WEJ0lbRmhn-Nmp4-10" style="rounded=0;orthogonalLoop=1;jettySize=auto;html=1;startArrow=none;startFill=0;endArrow=none;endFill=0;" parent="1" source="Ggve3WEJ0lbRmhn-Nmp4-2" target="Ggve3WEJ0lbRmhn-Nmp4-6" edge="1">
          <mxGeometry relative="1" as="geometry" />
        </mxCell>
        <mxCell id="Ggve3WEJ0lbRmhn-Nmp4-35" style="edgeStyle=none;rounded=0;orthogonalLoop=1;jettySize=auto;html=1;exitX=0.75;exitY=1;exitDx=0;exitDy=0;entryX=0.5;entryY=0;entryDx=0;entryDy=0;startArrow=none;startFill=0;endArrow=none;endFill=0;" parent="1" source="Ggve3WEJ0lbRmhn-Nmp4-2" target="Ggve3WEJ0lbRmhn-Nmp4-24" edge="1">
          <mxGeometry relative="1" as="geometry" />
        </mxCell>
        <mxCell id="Ggve3WEJ0lbRmhn-Nmp4-2" value="Rancher服务端组件" style="rounded=1;whiteSpace=wrap;html=1;" parent="1" vertex="1">
          <mxGeometry x="314.5" y="46" width="120" height="60" as="geometry" />
        </mxCell>
        <mxCell id="Ggve3WEJ0lbRmhn-Nmp4-13" style="edgeStyle=none;rounded=0;orthogonalLoop=1;jettySize=auto;html=1;entryX=0;entryY=0.5;entryDx=0;entryDy=0;startArrow=none;startFill=0;endArrow=none;endFill=0;" parent="1" source="Ggve3WEJ0lbRmhn-Nmp4-4" target="Ggve3WEJ0lbRmhn-Nmp4-7" edge="1">
          <mxGeometry relative="1" as="geometry" />
        </mxCell>
        <mxCell id="Ggve3WEJ0lbRmhn-Nmp4-4" value="k3s服务端组件" style="rounded=1;whiteSpace=wrap;html=1;" parent="1" vertex="1">
          <mxGeometry x="83" y="380" width="120" height="60" as="geometry" />
        </mxCell>
        <mxCell id="Ggve3WEJ0lbRmhn-Nmp4-12" style="edgeStyle=none;rounded=0;orthogonalLoop=1;jettySize=auto;html=1;exitX=0.5;exitY=1;exitDx=0;exitDy=0;startArrow=none;startFill=0;endArrow=none;endFill=0;" parent="1" source="Ggve3WEJ0lbRmhn-Nmp4-6" target="Ggve3WEJ0lbRmhn-Nmp4-4" edge="1">
          <mxGeometry relative="1" as="geometry" />
        </mxCell>
        <mxCell id="Ggve3WEJ0lbRmhn-Nmp4-6" value="Rancher集群节点组件" style="rounded=1;whiteSpace=wrap;html=1;" parent="1" vertex="1">
          <mxGeometry x="83" y="294" width="120" height="60" as="geometry" />
        </mxCell>
        <mxCell id="Ggve3WEJ0lbRmhn-Nmp4-38" style="edgeStyle=none;rounded=0;orthogonalLoop=1;jettySize=auto;html=1;entryX=0.5;entryY=0;entryDx=0;entryDy=0;startArrow=none;startFill=0;endArrow=none;endFill=0;" parent="1" source="Ggve3WEJ0lbRmhn-Nmp4-7" target="Ggve3WEJ0lbRmhn-Nmp4-36" edge="1">
          <mxGeometry relative="1" as="geometry" />
        </mxCell>
        <mxCell id="Ggve3WEJ0lbRmhn-Nmp4-7" value="k3s节点组件" style="rounded=1;whiteSpace=wrap;html=1;" parent="1" vertex="1">
          <mxGeometry x="282" y="294" width="120" height="60" as="geometry" />
        </mxCell>
        <mxCell id="Ggve3WEJ0lbRmhn-Nmp4-14" value="边缘node节点" style="text;html=1;strokeColor=none;fillColor=none;align=center;verticalAlign=middle;whiteSpace=wrap;rounded=0;" parent="1" vertex="1">
          <mxGeometry x="68" y="252" width="84" height="30" as="geometry" />
        </mxCell>
        <mxCell id="Ggve3WEJ0lbRmhn-Nmp4-15" value="边缘node节点" style="text;html=1;strokeColor=none;fillColor=none;align=center;verticalAlign=middle;whiteSpace=wrap;rounded=0;" parent="1" vertex="1">
          <mxGeometry x="267" y="252" width="84" height="30" as="geometry" />
        </mxCell>
        <mxCell id="Ggve3WEJ0lbRmhn-Nmp4-17" value="边缘k3s集群" style="text;html=1;strokeColor=none;fillColor=none;align=center;verticalAlign=middle;whiteSpace=wrap;rounded=0;" parent="1" vertex="1">
          <mxGeometry x="200" y="202" width="97" height="30" as="geometry" />
        </mxCell>
        <mxCell id="Ggve3WEJ0lbRmhn-Nmp4-19" value="" style="rounded=0;whiteSpace=wrap;html=1;" parent="1" vertex="1">
          <mxGeometry x="730" y="257" width="165" height="202" as="geometry" />
        </mxCell>
        <mxCell id="Ggve3WEJ0lbRmhn-Nmp4-20" value="" style="rounded=0;whiteSpace=wrap;html=1;" parent="1" vertex="1">
          <mxGeometry x="532" y="254" width="168" height="206" as="geometry" />
        </mxCell>
        <mxCell id="Ggve3WEJ0lbRmhn-Nmp4-21" style="edgeStyle=none;rounded=0;orthogonalLoop=1;jettySize=auto;html=1;entryX=0;entryY=0.5;entryDx=0;entryDy=0;startArrow=none;startFill=0;endArrow=none;endFill=0;" parent="1" source="Ggve3WEJ0lbRmhn-Nmp4-22" target="Ggve3WEJ0lbRmhn-Nmp4-25" edge="1">
          <mxGeometry relative="1" as="geometry" />
        </mxCell>
        <mxCell id="Ggve3WEJ0lbRmhn-Nmp4-22" value="k3s服务端组件" style="rounded=1;whiteSpace=wrap;html=1;" parent="1" vertex="1">
          <mxGeometry x="550" y="382" width="120" height="60" as="geometry" />
        </mxCell>
        <mxCell id="Ggve3WEJ0lbRmhn-Nmp4-23" style="edgeStyle=none;rounded=0;orthogonalLoop=1;jettySize=auto;html=1;exitX=0.5;exitY=1;exitDx=0;exitDy=0;startArrow=none;startFill=0;endArrow=none;endFill=0;" parent="1" source="Ggve3WEJ0lbRmhn-Nmp4-24" target="Ggve3WEJ0lbRmhn-Nmp4-22" edge="1">
          <mxGeometry relative="1" as="geometry" />
        </mxCell>
        <mxCell id="Ggve3WEJ0lbRmhn-Nmp4-24" value="Rancher集群节点组件" style="rounded=1;whiteSpace=wrap;html=1;" parent="1" vertex="1">
          <mxGeometry x="550" y="296" width="120" height="60" as="geometry" />
        </mxCell>
        <mxCell id="Ggve3WEJ0lbRmhn-Nmp4-39" style="edgeStyle=none;rounded=0;orthogonalLoop=1;jettySize=auto;html=1;entryX=0.5;entryY=0;entryDx=0;entryDy=0;startArrow=none;startFill=0;endArrow=none;endFill=0;" parent="1" source="Ggve3WEJ0lbRmhn-Nmp4-25" target="Ggve3WEJ0lbRmhn-Nmp4-37" edge="1">
          <mxGeometry relative="1" as="geometry" />
        </mxCell>
        <mxCell id="Ggve3WEJ0lbRmhn-Nmp4-25" value="k3s节点组件" style="rounded=1;whiteSpace=wrap;html=1;" parent="1" vertex="1">
          <mxGeometry x="752.5" y="299" width="120" height="60" as="geometry" />
        </mxCell>
        <mxCell id="Ggve3WEJ0lbRmhn-Nmp4-26" value="边缘node节点" style="text;html=1;strokeColor=none;fillColor=none;align=center;verticalAlign=middle;whiteSpace=wrap;rounded=0;" parent="1" vertex="1">
          <mxGeometry x="535" y="254" width="84" height="30" as="geometry" />
        </mxCell>
        <mxCell id="Ggve3WEJ0lbRmhn-Nmp4-27" value="边缘node节点" style="text;html=1;strokeColor=none;fillColor=none;align=center;verticalAlign=middle;whiteSpace=wrap;rounded=0;" parent="1" vertex="1">
          <mxGeometry x="734" y="254" width="84" height="30" as="geometry" />
        </mxCell>
        <mxCell id="Ggve3WEJ0lbRmhn-Nmp4-28" value="边缘k3s集群" style="text;html=1;strokeColor=none;fillColor=none;align=center;verticalAlign=middle;whiteSpace=wrap;rounded=0;" parent="1" vertex="1">
          <mxGeometry x="667" y="204" width="97" height="30" as="geometry" />
        </mxCell>
        <mxCell id="Ggve3WEJ0lbRmhn-Nmp4-31" value="云端node节点" style="text;html=1;strokeColor=none;fillColor=none;align=center;verticalAlign=middle;whiteSpace=wrap;rounded=0;" parent="1" vertex="1">
          <mxGeometry x="335.5" y="-7" width="78" height="30" as="geometry" />
        </mxCell>
        <mxCell id="Ggve3WEJ0lbRmhn-Nmp4-32" value="k8s集群" style="rounded=0;whiteSpace=wrap;html=1;" parent="1" vertex="1">
          <mxGeometry x="537" y="-6" width="180" height="144" as="geometry" />
        </mxCell>
        <mxCell id="Ggve3WEJ0lbRmhn-Nmp4-43" style="edgeStyle=none;rounded=0;orthogonalLoop=1;jettySize=auto;html=1;exitX=0.25;exitY=1;exitDx=0;exitDy=0;entryX=0.5;entryY=0;entryDx=0;entryDy=0;startArrow=none;startFill=0;endArrow=none;endFill=0;" parent="1" source="Ggve3WEJ0lbRmhn-Nmp4-36" target="Ggve3WEJ0lbRmhn-Nmp4-41" edge="1">
          <mxGeometry relative="1" as="geometry" />
        </mxCell>
        <mxCell id="Ggve3WEJ0lbRmhn-Nmp4-44" style="edgeStyle=none;rounded=0;orthogonalLoop=1;jettySize=auto;html=1;exitX=0.75;exitY=1;exitDx=0;exitDy=0;entryX=0.5;entryY=0;entryDx=0;entryDy=0;startArrow=none;startFill=0;endArrow=none;endFill=0;" parent="1" source="Ggve3WEJ0lbRmhn-Nmp4-36" target="Ggve3WEJ0lbRmhn-Nmp4-42" edge="1">
          <mxGeometry relative="1" as="geometry" />
        </mxCell>
        <mxCell id="Ggve3WEJ0lbRmhn-Nmp4-36" value="应用pod" style="rounded=1;whiteSpace=wrap;html=1;" parent="1" vertex="1">
          <mxGeometry x="282" y="377" width="120" height="60" as="geometry" />
        </mxCell>
        <mxCell id="Ggve3WEJ0lbRmhn-Nmp4-37" value="应用pod" style="rounded=1;whiteSpace=wrap;html=1;" parent="1" vertex="1">
          <mxGeometry x="755" y="380" width="120" height="60" as="geometry" />
        </mxCell>
        <mxCell id="Ggve3WEJ0lbRmhn-Nmp4-41" value="Device1" style="rounded=0;whiteSpace=wrap;html=1;fillColor=#0050ef;fontColor=#ffffff;strokeColor=#001DBC;" parent="1" vertex="1">
          <mxGeometry x="263" y="527" width="70" height="58" as="geometry" />
        </mxCell>
        <mxCell id="Ggve3WEJ0lbRmhn-Nmp4-42" value="Device2" style="rounded=0;whiteSpace=wrap;html=1;fillColor=#60a917;fontColor=#ffffff;strokeColor=#2D7600;" parent="1" vertex="1">
          <mxGeometry x="358" y="527" width="70" height="58" as="geometry" />
        </mxCell>
        <mxCell id="Ggve3WEJ0lbRmhn-Nmp4-47" style="edgeStyle=none;rounded=0;orthogonalLoop=1;jettySize=auto;html=1;entryX=0.25;entryY=1;entryDx=0;entryDy=0;startArrow=none;startFill=0;endArrow=none;endFill=0;" parent="1" source="Ggve3WEJ0lbRmhn-Nmp4-45" target="Ggve3WEJ0lbRmhn-Nmp4-37" edge="1">
          <mxGeometry relative="1" as="geometry" />
        </mxCell>
        <mxCell id="Ggve3WEJ0lbRmhn-Nmp4-45" value="Device1" style="rounded=0;whiteSpace=wrap;html=1;fillColor=#0050ef;fontColor=#ffffff;strokeColor=#001DBC;" parent="1" vertex="1">
          <mxGeometry x="743" y="523" width="70" height="58" as="geometry" />
        </mxCell>
        <mxCell id="Ggve3WEJ0lbRmhn-Nmp4-48" style="edgeStyle=none;rounded=0;orthogonalLoop=1;jettySize=auto;html=1;entryX=0.75;entryY=1;entryDx=0;entryDy=0;startArrow=none;startFill=0;endArrow=none;endFill=0;" parent="1" source="Ggve3WEJ0lbRmhn-Nmp4-46" target="Ggve3WEJ0lbRmhn-Nmp4-37" edge="1">
          <mxGeometry relative="1" as="geometry" />
        </mxCell>
        <mxCell id="Ggve3WEJ0lbRmhn-Nmp4-46" value="Device2" style="rounded=0;whiteSpace=wrap;html=1;fillColor=#60a917;fontColor=#ffffff;strokeColor=#2D7600;" parent="1" vertex="1">
          <mxGeometry x="827" y="523" width="70" height="58" as="geometry" />
        </mxCell>
        <mxCell id="Ggve3WEJ0lbRmhn-Nmp4-49" value="&lt;font style=&quot;font-size: 14px;&quot;&gt;设备端&lt;/font&gt;" style="text;html=1;strokeColor=none;fillColor=none;align=center;verticalAlign=middle;whiteSpace=wrap;rounded=0;" parent="1" vertex="1">
          <mxGeometry x="-57" y="537" width="60" height="30" as="geometry" />
        </mxCell>
        <mxCell id="Ggve3WEJ0lbRmhn-Nmp4-50" value="&lt;span style=&quot;font-size: 14px;&quot;&gt;边缘端&lt;/span&gt;" style="text;html=1;strokeColor=none;fillColor=none;align=center;verticalAlign=middle;whiteSpace=wrap;rounded=0;" parent="1" vertex="1">
          <mxGeometry x="-60" y="321" width="60" height="30" as="geometry" />
        </mxCell>
        <mxCell id="Ggve3WEJ0lbRmhn-Nmp4-51" value="&lt;span style=&quot;font-size: 14px;&quot;&gt;云端&lt;/span&gt;" style="text;html=1;strokeColor=none;fillColor=none;align=center;verticalAlign=middle;whiteSpace=wrap;rounded=0;" parent="1" vertex="1">
          <mxGeometry x="-60" y="35" width="60" height="30" as="geometry" />
        </mxCell>
        <mxCell id="Ggve3WEJ0lbRmhn-Nmp4-34" style="edgeStyle=none;rounded=0;orthogonalLoop=1;jettySize=auto;html=1;startArrow=none;startFill=0;endArrow=none;endFill=0;" parent="1" source="Ggve3WEJ0lbRmhn-Nmp4-2" edge="1">
          <mxGeometry relative="1" as="geometry">
            <mxPoint x="536" y="77" as="targetPoint" />
          </mxGeometry>
        </mxCell>
      </root>
    </mxGraphModel>
  </diagram>
</mxfile>
